# xmcd
#
# Track frame offsets:
# 150
# 20630
# 24042
# 42934
# 58347
# 80353
# 98532
# 117545
# 137257
# 153199
# 156301
# 170475
# 186997
# 204867
# 223876
# 249230
# 268149
#
# Disc length: 3850 seconds
#
# Revision: 0
# Processed by: cddbd v1.5.2PL0 Copyright (c) Steve Scherf et al.
# Submitted via: Audion 3.0.2 (http://www.panic.com/audion/)
#
DISCID=e20f0811
DTITLE=Capossela - Canzoni a manovella
DYEAR=1900
DGENRE=
TTITLE0=Bardamù
TTITLE1=Polka di Warsawa
TTITLE2=Decervellamento
TTITLE3=Marajà
TTITLE4=Canzone a manovella
TTITLE5=I pagliacci
TTITLE6=Marcia del camposanto
TTITLE7=I pianoforti di Lubecca
TTITLE8=Suona Rosamunda
TTITLE9=Intermezzo
TTITLE10=Contratto per Karelias
TTITLE11=Solo mia
TTITLE12=Corre il soldato
TTITLE13=Signora Luna
TTITLE14=Con una rosa
TTITLE15=Nella pioggia
TTITLE16=Resto qua
EXTD=
EXTT0=
EXTT1=
EXTT2=
EXTT3=
EXTT4=
EXTT5=
EXTT6=
EXTT7=
EXTT8=
EXTT9=
EXTT10=
EXTT11=
EXTT12=
EXTT13=
EXTT14=
EXTT15=
EXTT16=
PLAYORDER=
